<?xml version="1.0" standalone="no"?>
<!DOCTYPE svg PUBLIC "-//W3C//DTD SVG 20010904//EN"
 "http://www.w3.org/TR/2001/REC-SVG-20010904/DTD/svg10.dtd">
<svg version="1.0" xmlns="http://www.w3.org/2000/svg"
 width="3125.000000pt" height="3329.000000pt" viewBox="0 0 3125.000000 3329.000000"
 preserveAspectRatio="xMidYMid meet">

<g transform="translate(0.000000,3329.000000) scale(0.100000,-0.100000)"
fill="#000000" stroke="none">
<path d="M15635 21290 c-54 -8 -84 -21 -540 -245 -165 -81 -363 -178 -440
-215 -77 -37 -266 -129 -420 -205 -154 -76 -338 -166 -410 -200 -510 -246
-754 -370 -784 -398 -46 -45 -77 -95 -96 -159 -14 -48 -15 -220 -13 -1639 l3
-1584 22 -47 c43 -93 93 -133 274 -223 91 -46 176 -86 187 -89 l22 -7 2 1643
3 1643 22 55 c13 31 46 82 74 113 57 64 58 65 472 251 141 64 371 167 510 230
1053 475 1169 526 1200 526 17 0 47 -9 65 -20 52 -32 62 -70 62 -227 0 -153
-14 -204 -67 -235 -25 -14 -352 -162 -1203 -545 -140 -63 -305 -137 -367 -165
-124 -56 -183 -104 -217 -177 l-21 -46 -2 -1655 -3 -1655 98 -46 c53 -26 168
-81 255 -122 l157 -76 0 1617 c0 1310 3 1628 14 1673 24 106 103 207 196 254
25 12 492 224 1039 470 645 290 1005 447 1026 447 18 0 45 -7 61 -15 53 -27
59 -53 59 -238 0 -152 -2 -170 -20 -194 -15 -20 -159 -89 -575 -276 -724 -327
-816 -368 -995 -447 -119 -53 -160 -76 -197 -113 -84 -84 -78 60 -78 -1794 l0
-1642 213 -103 c301 -146 310 -149 393 -150 83 0 105 7 274 88 69 32 222 105
340 162 118 56 366 174 550 262 184 88 380 182 435 208 1068 507 1074 510
1123 564 24 26 54 69 65 94 l22 47 0 1605 0 1605 -28 57 c-50 101 -87 126
-478 312 -195 93 -527 252 -739 354 -212 101 -430 206 -485 232 -55 26 -163
78 -240 115 -77 37 -176 84 -220 105 -44 21 -155 74 -246 118 -219 105 -255
115 -354 102z m2221 -1608 c41 -32 44 -53 44 -271 0 -203 -1 -211 -22 -236
-21 -23 -451 -221 -1471 -677 -267 -119 -257 -105 -257 -384 0 -187 1 -202 20
-219 10 -9 32 -18 47 -18 16 0 239 95 533 227 970 438 970 438 1013 438 46 -1
81 -23 115 -72 21 -31 22 -43 22 -212 0 -187 -7 -225 -47 -260 -11 -10 -114
-60 -229 -112 -520 -233 -1332 -600 -1364 -616 -41 -21 -71 -52 -94 -97 -13
-26 -16 -65 -16 -198 0 -181 7 -211 55 -233 56 -26 -6 -51 1005 405 682 308
645 295 676 249 13 -21 15 -55 12 -233 -3 -231 -6 -241 -76 -311 -38 -38 -22
-30 -1227 -572 -148 -67 -405 -183 -570 -257 -314 -142 -349 -152 -401 -118
-58 37 -54 -55 -54 1374 l-1 1313 24 52 c24 53 77 112 119 134 13 7 478 217
1033 467 1064 479 1061 478 1111 437z"/>
<path d="M12995 14453 c-234 -30 -462 -146 -620 -315 -151 -161 -243 -368
-263 -588 -23 -261 45 -506 196 -707 133 -175 340 -308 567 -364 104 -26 303
-35 419 -20 422 57 758 357 857 768 17 68 22 119 22 228 0 165 -17 257 -72
391 -51 125 -119 224 -221 324 -195 191 -454 292 -737 289 -65 -1 -131 -4
-148 -6z m266 -397 c110 -24 194 -71 284 -161 127 -126 179 -254 179 -445 -1
-283 -152 -497 -414 -586 -76 -26 -253 -26 -330 0 -202 68 -354 229 -405 431
-19 77 -19 243 0 320 81 319 374 507 686 441z"/>
<path d="M20168 14440 c-211 -36 -359 -132 -524 -343 -26 -32 -45 -59 -43 -61
2 -2 70 -55 151 -120 l146 -117 99 100 c128 129 180 156 303 156 72 -1 93 -5
137 -28 87 -45 130 -133 120 -245 -15 -156 -85 -233 -590 -644 -202 -165 -374
-307 -382 -315 -12 -11 -15 -48 -15 -179 l0 -164 725 0 725 0 0 180 0 180
-421 2 -421 3 208 162 c422 327 529 445 590 648 27 91 25 287 -3 380 -26 83
-79 175 -134 231 -80 82 -224 151 -360 173 -73 12 -241 12 -311 1z"/>
<path d="M8300 13455 l0 -975 745 0 745 0 0 195 0 195 -530 0 -530 0 0 195 0
195 460 0 460 0 0 195 0 195 -460 0 -460 0 0 195 0 195 520 0 520 0 0 195 0
195 -735 0 -735 0 0 -975z"/>
<path d="M10160 13455 l0 -975 215 0 215 0 0 298 0 297 114 114 114 114 74
-100 c40 -56 174 -240 298 -411 l225 -311 258 -1 c204 0 257 3 251 13 -7 11
-88 122 -642 875 l-174 235 64 66 c35 36 167 174 293 306 126 132 276 288 334
348 l106 107 -265 -1 -265 0 -385 -419 c-212 -230 -388 -419 -392 -419 -5 -1
-8 188 -8 419 l0 420 -215 0 -215 0 0 -975z"/>
<path d="M14408 14424 c-3 -2 144 -443 326 -979 l331 -975 189 2 190 3 215
623 c119 342 218 622 221 622 3 0 102 -280 220 -623 l215 -622 193 -3 c121 -1
192 1 192 7 0 8 525 1565 634 1879 l25 72 -227 0 -227 0 -93 -308 c-51 -169
-141 -464 -200 -656 l-107 -349 -217 654 -217 654 -185 3 -184 2 -219 -656
-219 -656 -199 656 -200 656 -227 -1 c-124 0 -228 -2 -230 -5z"/>
<path d="M17670 13454 l0 -975 568 4 c545 3 570 4 650 25 121 32 218 80 286
142 101 93 143 184 153 330 14 223 -75 378 -277 479 l-77 38 63 46 c110 80
173 200 181 347 14 235 -104 410 -332 493 -120 43 -182 47 -714 47 l-501 0 0
-976z m1016 561 c70 -36 104 -89 104 -166 0 -91 -38 -145 -129 -181 -52 -20
-77 -22 -313 -26 l-258 -4 0 207 0 207 268 -4 268 -3 60 -30z m8 -745 c125
-20 194 -81 204 -179 9 -96 -34 -166 -126 -203 -54 -21 -72 -23 -369 -26
l-313 -4 0 211 0 211 273 0 c149 0 298 -4 331 -10z"/>
<path d="M21410 13455 l0 -976 568 4 c548 3 570 4 652 26 163 42 302 131 367
235 84 132 95 345 26 499 -34 76 -129 164 -233 216 l-77 38 63 46 c112 81 173
200 181 352 6 102 -12 189 -54 267 -39 71 -130 153 -215 193 -149 70 -135 69
-735 73 l-543 3 0 -976z m1013 562 c72 -36 107 -89 107 -165 0 -95 -37 -147
-129 -184 -52 -20 -77 -22 -313 -26 l-258 -4 0 207 0 207 268 -4 267 -3 58
-28z m74 -759 c62 -25 101 -57 123 -103 34 -71 21 -166 -32 -222 -12 -13 -46
-33 -77 -45 -53 -21 -73 -23 -368 -26 l-313 -4 0 212 0 212 313 -4 c259 -3
319 -7 354 -20z"/>
</g>
</svg>
